<svg width="100" height="100" viewBox="0 0 100 100" fill="none" xmlns="http://www.w3.org/2000/svg">
<path d="M48.6657 1.18531C48.8534 -0.395103 51.1466 -0.395103 51.3343 1.18531L52.9075 14.4435C54.9388 31.5634 68.4366 45.0612 85.5563 47.0925L98.8146 48.6657C100.395 48.8534 100.395 51.1466 98.8146 51.3343L85.5563 52.9075C68.4366 54.9388 54.9388 68.4366 52.9075 85.5563L51.3343 98.8146C51.1466 100.395 48.8534 100.395 48.6657 98.8146L47.0925 85.5563C45.0612 68.4366 31.5634 54.9388 14.4435 52.9075L1.18531 51.3343C-0.395103 51.1466 -0.395103 48.8534 1.18531 48.6657L14.4435 47.0925C31.5634 45.0612 45.0612 31.5634 47.0925 14.4435L48.6657 1.18531Z" fill="white"/>
</svg>
