<svg width="891" height="696" viewBox="0 0 891 696" fill="none" xmlns="http://www.w3.org/2000/svg">
<path d="M822.333 304.404C823.526 305.542 824.743 306.784 826.34 308.156C863.109 272.864 898.335 236.948 927.829 196.372C957.633 155.617 972.74 110.294 980.676 62.7008C981.383 58.634 980.419 54.4057 979.723 50.3332C978.645 44.0696 979.711 38.5102 985.803 34.517C987.326 33.5188 989.007 32.7015 990.695 32.4251C991.804 32.172 993.324 32.6934 994.399 33.316C1004.19 38.8941 1014.86 43.7287 1023.34 50.6923C1027.79 54.3424 1030.66 61.8238 1030.71 67.671C1030.8 81.8638 1030 96.2592 1027.25 110.337C1023.44 129.434 1017.46 148.264 1012.45 167.201L1012.67 167.15C1012.88 168.078 1013.11 169.11 1013.35 170.141L1013.13 170.192C1012.39 172.095 1011.69 174.101 1010.95 176.004L1011.63 175.414L1011.26 175.825C1006.64 183.714 1001.89 191.524 997.267 199.413L997.553 199.131C996.766 200.287 995.979 201.442 995.192 202.598L995.565 202.188C994.779 203.343 993.992 204.499 993.205 205.655L993.467 205.27C992.681 206.426 991.894 207.582 991.107 208.738L991.369 208.352C990.583 209.508 989.795 210.664 989.009 211.82L989.271 211.435C988.484 212.59 987.697 213.746 986.911 214.902L987.173 214.517C986.386 215.673 985.599 216.829 984.813 217.984L985.075 217.599C984.288 218.755 983.501 219.911 982.714 221.067L982.976 220.681C982.19 221.837 981.403 222.993 980.616 224.149L980.855 223.661C980.068 224.817 979.281 225.972 978.407 227.257L978.757 226.743C977.97 227.899 977.183 229.055 976.309 230.339L976.659 229.825C975.872 230.981 975.085 232.137 974.211 233.421L974.561 232.908C973.774 234.063 972.9 235.348 972.113 236.504L972.463 235.99C971.676 237.146 970.801 238.43 970.015 239.586L970.364 239.072C969.577 240.228 968.703 241.513 967.916 242.668L968.266 242.155C967.479 243.31 966.605 244.595 965.818 245.751L966.168 245.237L963.744 248.936L964.204 248.397C958.922 254.918 953.774 261.516 948.492 268.037L948.818 267.42C935.988 280.761 923.427 294.258 910.438 307.419C886.13 331.84 861.417 356.028 836.998 380.475C830.909 386.529 825.516 393.075 819.719 399.388C816.946 400.02 814.283 400.627 811.62 401.235C811.035 404.297 810.561 407.335 809.841 410.32C808.278 411.653 806.738 413.089 805.174 414.422C803.05 415.34 800.925 416.259 798.689 417.203C797.213 418.408 795.737 419.612 794.261 420.816C791.82 421.373 789.49 421.905 787.161 422.436C787.164 424.497 787.056 426.582 787.083 428.746C785.916 429.772 784.638 430.823 783.472 431.848C782.957 431.64 782.443 431.432 781.794 431.146L783.209 432.233C784.416 430.873 785.647 429.616 786.831 428.153C786.962 426.17 787.117 424.29 787.248 422.307C789.467 421.801 791.773 421.167 793.968 420.558L798.373 416.841C800.632 416 802.892 415.16 805.262 414.293C806.825 412.961 808.365 411.524 809.818 410.217C810.403 407.154 810.988 404.091 811.573 401.029C814.236 400.421 816.899 399.814 819.45 399.232C824.019 396.237 828.588 393.242 833.07 390.376L832.737 390.452C824.227 398.685 816.484 407.72 807.185 415.048C776.071 439.828 745.163 464.995 712.763 488.225C655.372 529.304 596.559 568.756 532.916 600.846C514.496 610.146 494.869 617.226 475.722 625.39L475.793 625.7C474.795 625.927 473.685 626.18 472.687 626.408L472.616 626.099C464.393 630.469 456.492 635.743 447.835 639.236C395.576 659.834 341.796 674.27 285.754 680.324C262.756 682.857 240.154 688.663 217.232 692.046C166.636 699.463 117.269 696.401 71.7291 675.325C16.703 650.011 -8.31594 598.651 3.8171 541.313C8.96701 516.813 16.9743 493.071 30.4813 471.439C54.8557 432.465 78.9377 393.232 106.025 355.917C145.388 301.807 195.542 256.628 248.825 214.424C322.183 156.358 400.364 105.112 484.909 62.8304C518.125 46.25 552.185 31.3216 588.726 22.6624C592.942 21.7009 597.386 21.2295 601.538 20.4996L606.077 40.4033C612.051 39.4748 617.582 38.6473 622.645 37.8181C625.806 30.6962 623.991 24.2752 627.848 17.6455C630.615 12.8917 633.1 10.4808 637.427 9.494C684.513 -1.02798 732.143 -3.53721 778.612 6.26102C832.554 17.6096 874.436 45.1617 896.268 94.3195C905.88 115.995 904.495 139.094 899.547 161.921C892.093 196.277 876.236 227.559 856.69 257.512L856.784 257.924C856.676 256.43 856.458 254.961 856.216 253.389L855.766 252.949L856.286 253.698L851.102 259.112L851.475 258.701C850.689 259.857 849.814 261.141 849.028 262.297L849.377 261.783C848.59 262.939 847.803 264.095 846.929 265.379L847.279 264.866C846.492 266.021 845.618 267.306 844.831 268.462L845.181 267.948C844.394 269.104 843.52 270.388 842.733 271.544L843.083 271.03C842.296 272.186 841.422 273.471 840.635 274.626L840.985 274.113L838.537 277.709L838.886 277.195C838.1 278.351 837.225 279.635 836.439 280.791L836.788 280.277C836.001 281.433 835.127 282.717 834.34 283.873L834.69 283.359C833.204 285.543 831.718 287.726 830.144 290.038L830.605 289.499C820.461 302.336 810.34 315.276 800.196 328.113C798.76 328.983 797.19 329.775 795.755 330.645C796.877 331.474 798 332.303 799.123 333.132C799.412 331.33 799.725 329.631 799.903 327.855C807.485 320.158 815.154 312.334 822.736 304.638L822.222 304.43L822.333 304.404ZM205.87 273.258C205.87 273.258 205.094 273.436 204.761 273.511C205.205 273.41 205.712 273.078 206.045 273.002L205.443 272.922C205.443 272.922 205.736 273.181 205.783 273.387L205.87 273.258ZM209.26 347.995C208.187 349.433 207.091 350.768 206.019 352.206C204.314 352.92 202.499 353.66 200.818 354.477C200.75 356.228 200.548 357.902 200.481 359.653C197.99 361.523 195.609 363.368 193.118 365.238C190.001 366.925 186.885 368.613 183.768 370.3C183.543 371.87 183.206 373.465 182.981 375.036C182.866 376.581 182.863 378.101 182.748 379.646C182.416 379.721 182.13 380.003 181.797 380.079C181.925 379.616 182.164 379.128 182.291 378.665C182.362 378.974 182.543 379.258 182.725 379.542C182.594 377.945 182.598 376.425 182.467 374.828C182.937 373.31 183.297 371.817 183.745 370.197C186.727 368.431 189.732 366.769 192.714 365.004C195.206 363.134 197.808 361.239 200.165 359.291C200.232 357.54 200.3 355.789 200.367 354.037C202.206 353.401 203.934 352.79 205.75 352.05C206.91 350.484 208.093 349.02 209.277 347.557C209.055 347.608 208.786 347.452 208.541 347.4C208.81 347.555 209.078 347.711 209.26 347.995ZM823.941 382.585C824.505 381.48 825.07 380.375 825.635 379.269C829.697 376.607 833.939 374.229 837.574 371.231C845.065 365.182 852.374 358.85 859.683 352.518C859.546 350.38 859.432 348.344 859.294 346.206C864.004 347.41 866.946 345.98 867.242 341.139C874.887 336.791 882.983 332.883 885.072 323.619C887.627 321.518 890.159 319.313 892.714 317.211L900.806 311.243C912.48 297.948 924.154 284.654 935.828 271.359C936.1 269.995 936.507 268.709 936.78 267.345C940.485 264.656 944.166 261.863 947.713 258.993C948.231 257.681 948.614 256.292 949.132 254.981C949.428 253.72 949.725 252.459 949.886 251.12C950.696 250.067 951.396 249.04 952.206 247.987C952.835 246.65 953.487 245.417 954.005 244.105C954.076 244.415 954.146 244.724 954.217 245.033C954.146 244.724 953.965 244.44 953.783 244.156C953.4 245.545 952.905 246.96 952.522 248.349C951.712 249.402 951.012 250.429 950.202 251.482C949.906 252.743 949.586 253.901 949.29 255.161C948.796 256.576 948.413 257.966 947.919 259.38C944.214 262.07 940.643 264.837 936.961 267.629C936.665 268.89 936.282 270.279 935.986 271.54C924.07 283.263 912.155 294.985 900.508 306.863C899.738 307.581 900.722 309.852 900.695 311.268C895.115 309.829 893.057 312.576 892.737 317.314C890.182 319.416 887.651 321.621 885.206 323.697C879.292 329.494 873.402 335.394 867.377 341.216C864.593 342.828 861.832 344.542 859.096 346.36C859.233 348.498 859.371 350.637 859.508 352.775C850.438 353.433 832.434 367.629 825.659 379.373C825.117 380.581 824.441 381.711 823.877 382.817L823.695 382.533L823.941 382.585ZM830.948 346.27C830.948 346.27 831.701 345.99 832.121 345.785C831.724 346.093 831.351 346.503 830.954 346.811C831.176 346.76 831.421 346.813 831.667 346.865C831.398 346.71 831.216 346.426 830.948 346.27ZM863.154 236.726C863.154 236.726 862.71 236.828 862.646 237.059C862.891 237.112 863.271 237.242 863.516 237.295C863.295 237.345 863.073 237.396 862.851 237.446C862.915 237.215 863.066 236.855 863.13 236.623L863.154 236.726ZM919.421 229.101C919.575 230.802 919.73 232.502 919.861 234.1C918.758 234.894 917.631 235.585 916.529 236.379C907.599 244.816 897.839 252.684 890.008 261.847C853.372 304.377 808.7 339.302 766.864 376.942C759.888 383.198 754.31 390.98 748.1 398.038C747.767 398.114 747.481 398.396 747.148 398.472C746.926 398.522 746.61 398.16 746.365 398.108C746.967 398.188 747.481 398.396 748.083 398.476C751.384 395.553 754.552 392.552 758.011 389.81C813.053 347.639 865.146 302.777 908.009 249.171C911.186 245.192 913.509 240.539 916.149 236.248C917.252 235.454 918.378 234.763 919.457 233.866C919.326 232.269 919.33 230.749 919.31 229.126L920.251 229.671L919.421 229.101ZM878.034 308.625L877.846 307.8L878.296 308.24L877.338 308.133L878.034 308.625ZM156.337 415.83C155.48 416.676 154.733 417.497 153.876 418.344C153.422 419.424 152.968 420.503 152.403 421.609C141.91 427.799 138.877 438.038 135.574 448.121C133.775 452.003 131.952 455.783 130.153 459.665L125.497 462.788C125.54 464.514 125.56 466.137 125.604 467.863L126.078 468.405L125.732 467.399C125.735 465.88 125.715 464.257 125.608 462.763C126.996 461.686 128.472 460.482 129.861 459.406C131.66 455.524 133.482 451.745 135.281 447.863C140.846 438.999 146.435 430.239 152.111 421.35C152.565 420.27 153.129 419.165 153.583 418.085C154.552 417.213 155.52 416.341 156.354 415.392C156.33 415.289 156.529 415.135 156.616 415.006C156.552 415.238 156.377 415.495 156.337 415.83ZM942.842 235.585C941.342 236.686 939.843 237.788 938.343 238.889L938.665 243.372C935.589 244.725 932.624 246.052 929.706 247.586C929.275 248.769 928.868 250.055 928.461 251.341C928.101 252.833 927.631 254.351 927.271 255.844C923.969 258.767 920.755 261.561 917.453 264.484C917.339 266.029 917.113 267.599 916.999 269.144C914.127 270.884 911.256 272.624 908.385 274.363C908.113 275.727 907.975 277.169 907.702 278.533C904.966 280.351 902.363 282.246 899.65 284.167C899.424 285.737 899.088 287.333 898.863 288.903C892.862 287.668 891.92 290.704 892.465 295.136C889.909 297.238 887.33 299.236 884.641 301.26L883.817 301.231L884.372 301.104C887.038 298.977 889.617 296.979 892.306 294.955C894.394 292.851 896.459 290.645 898.523 288.438C898.749 286.868 898.974 285.298 899.2 283.727C901.913 281.807 904.539 280.014 907.141 278.119C907.413 276.755 907.686 275.391 907.958 274.027C910.829 272.287 913.811 270.522 916.548 268.704C916.663 267.159 916.777 265.615 916.892 264.07C920.194 261.147 923.495 258.224 926.686 255.326C927.046 253.834 927.54 252.419 927.9 250.927C928.418 249.615 928.959 248.407 929.366 247.121C932.442 245.768 935.542 244.519 938.618 243.166C938.313 241.826 938.094 240.357 938.01 238.965C939.574 237.632 941.137 236.299 942.59 234.991C942.368 235.042 942.146 235.093 941.9 235.04C942.169 235.196 942.438 235.352 942.707 235.507L942.842 235.585ZM799.901 318.633C799.706 317.267 799.599 315.773 799.404 314.407C800.238 313.458 801.072 312.508 801.929 311.662C806.327 307.404 810.614 303.171 815.035 299.017C814.86 299.274 814.574 299.556 814.4 299.813L814.386 298.731C814.386 298.731 814.837 299.17 814.995 299.351C810.782 302.374 806.459 305.421 802.246 308.443L801.627 308.801L802.626 308.573C802.528 309.68 802.541 310.763 802.444 311.87C801.61 312.819 800.752 313.666 799.919 314.615C800.002 316.007 800.063 317.295 800.012 318.608C799.383 319.945 798.644 321.307 798.015 322.644C790.501 321.428 788.101 325.231 787.975 331.335C784.855 334.541 781.846 337.723 778.749 341.033C775.629 344.24 772.509 347.447 769.389 350.654C763.667 352.176 760.389 355.202 761.262 361.078C758.431 362.483 755.49 363.914 752.659 365.319C753.156 365.965 753.788 366.688 754.286 367.334C756.485 365.206 758.771 362.948 760.97 360.819C763.687 357.379 766.403 353.938 769.12 350.498C772.24 347.291 775.36 344.084 778.48 340.877C781.601 337.67 784.586 334.386 787.707 331.179C791.143 328.334 794.69 325.464 798.102 322.515C798.842 321.153 799.494 319.92 800.234 318.557L799.901 318.633ZM770.852 321.244L771.575 316.74C771.575 316.74 772.083 316.407 772.415 316.331C772.288 316.795 772.136 317.154 772.008 317.617C771.938 317.308 771.78 317.127 771.646 317.049C771.508 318.491 771.504 320.011 771.366 321.453C771.029 323.048 770.693 324.644 770.246 326.265C767.351 327.901 764.567 329.513 761.696 331.253C761.424 332.617 761.175 334.084 760.902 335.448C751.741 337.754 746.153 342.934 745.174 351.945C742.571 353.841 739.969 355.736 737.39 357.735C736.896 359.149 736.425 360.667 735.931 362.082C734.226 362.796 732.545 363.613 730.841 364.327C730.172 365.999 729.614 367.645 728.944 369.317C726.709 370.261 724.473 371.204 722.237 372.148C722.459 372.098 722.704 372.15 722.95 372.203C722.681 372.047 722.412 371.891 722.143 371.736C724.426 370.998 726.685 370.157 729.079 369.394C729.502 367.67 730.037 365.921 730.461 364.197C732.142 363.38 733.823 362.563 735.504 361.745C735.999 360.331 736.493 358.916 737.011 357.604C739.724 355.684 742.35 353.891 745.063 351.971C750.224 346.454 755.472 340.809 760.499 335.214C760.771 333.85 761.044 332.486 761.316 331.122C764.211 329.486 767.217 327.824 769.953 326.006C770.29 324.411 770.539 322.943 770.875 321.348L770.852 321.244ZM779.472 312.986C780.094 311.108 780.804 309.102 781.426 307.224L782.186 307.485L781.409 307.662C780.985 309.386 780.538 311.007 780.091 312.628C779.822 312.472 779.577 312.42 779.308 312.264C779.355 312.47 779.402 312.677 779.449 312.883L779.472 312.986ZM764.161 300.096C764.141 298.473 764.01 296.876 763.99 295.253C764.232 296.825 764.474 298.397 764.605 299.995C763.778 301.485 762.927 302.873 762.1 304.363C759.474 306.156 756.824 307.845 754.199 309.637C753.657 310.845 753.092 311.95 752.551 313.159C748.974 315.385 744.835 317.197 741.977 320.018C729.584 332.718 718.542 346.736 705.09 358.375C669.377 389.086 632.606 418.737 596.15 448.749C586.524 456.695 576.559 464.175 566.641 471.861C585.499 461.919 604.467 451.952 620.615 438.83C652.229 413.176 683.03 386.515 712.685 358.921C727.512 345.124 739.099 328.378 752.171 313.029C752.713 311.82 753.254 310.612 753.819 309.506C756.556 307.689 759.181 305.897 761.784 304.001C762.658 302.717 763.421 301.458 764.296 300.174L764.161 300.096ZM126.478 439.455C127.709 438.198 128.828 436.967 130.059 435.71C130.331 434.346 130.627 433.085 130.9 431.721C130.846 430.973 130.903 430.201 130.85 429.454C131.919 429.536 132.988 429.617 134.057 429.699L134.658 429.778L134.541 429.263C133.327 430.082 132.113 430.901 130.947 431.927C130.785 433.265 130.6 434.501 130.328 435.865C129.121 437.225 127.803 438.611 126.596 439.971C126.818 439.921 127.174 439.948 127.419 440C127.15 439.845 126.77 439.714 126.478 439.455ZM610.713 538.188C610.713 538.188 611.261 537.52 611.547 537.238C611.372 537.495 611.173 537.649 610.864 537.828L610.047 538.34L610.713 538.188ZM305.49 192.17C304.307 193.633 303.258 195.174 302.074 196.638C275.978 216.802 249.881 236.966 223.918 257.208C222.53 258.284 222.452 261.014 221.854 262.995C218.683 263.935 215.49 264.772 212.319 265.712C212.588 265.868 212.77 266.152 213.039 266.308C212.571 266.306 211.993 266.329 211.502 266.224C211.812 266.045 212.01 265.891 212.43 265.687L221.988 263.073C224.735 260.277 227.19 257.222 230.276 254.89C251.145 238.414 272.148 222.015 292.906 205.564C296.278 202.95 298.995 199.51 302.051 196.535C303.234 195.072 304.307 193.633 305.601 192.145C308.082 191.253 310.587 190.465 313.068 189.574C316.528 186.832 320.099 184.065 323.669 181.298C324.765 179.963 325.838 178.525 326.934 177.19C328.521 175.96 330.195 174.602 331.782 173.372C332.115 173.296 332.488 172.885 332.821 172.81C333.043 172.759 333.359 173.121 333.628 173.276L331.799 172.934C330.125 174.292 328.474 175.754 326.799 177.112C325.838 178.525 324.9 180.041 323.938 181.453C320.367 184.22 316.908 186.962 313.314 189.626C310.809 190.415 308.328 191.306 305.712 192.119L305.49 192.17ZM701.451 427.88C701.451 427.88 702.087 427.084 702.372 426.802C702.554 427.086 702.735 427.37 703.004 427.525C702.497 427.858 701.965 428.088 701.458 428.421C701.68 428.37 701.814 428.448 702.06 428.5C701.901 428.319 701.744 428.138 701.586 427.957L701.451 427.88ZM632.526 52.489C630.687 53.1253 628.714 53.6838 626.875 54.3202L626.28 54.7817L627.279 54.5539C628.983 53.8397 630.6 53.2539 632.439 52.6175L632.614 52.3604L632.526 52.489ZM626.631 67.0694L629.089 69.6553C628.211 68.879 627.357 68.2056 626.48 67.4293C625.341 67.0383 624.288 66.5188 623.149 66.1278C622.977 68.4452 622.782 70.6595 622.61 72.977C618.084 77.6978 613.646 82.2902 608.946 87.2679C609.712 88.0695 610.438 89.2059 611.514 89.8285C617.881 93.6925 622.597 99.018 620.37 106.144C618.057 113.398 610.197 111.176 604.182 112.439C586.559 116.025 567.942 118.318 551.784 125.258C519.136 139.213 486.353 153.091 455.446 171.097C393.632 207.11 334.479 246.096 279.448 290.869C221.044 338.255 171.014 391.652 138.632 457.948C124.633 486.636 113.983 516.188 112.167 547.63C110.937 568.85 113.971 589.313 127.379 606.652C132.693 613.576 139.748 620.972 147.86 623.787C176.532 633.847 207.238 637.476 236.883 627.244C272.91 614.796 308.426 600.62 342.577 584.044C432.026 540.752 516.188 489.118 596.183 431.492C661.048 384.802 719.811 332.343 766.942 269.301C795.814 230.603 820.992 190.035 833.423 144.237C837.913 127.591 839.34 109.798 839.151 92.5914C839.069 73.2986 826.178 61.8094 806.307 58.096C778.25 52.7779 750.119 48.6701 720.988 55.5309C710.227 57.9852 698.918 57.5266 687.558 58.3815C687.559 54.8012 687.445 52.7657 687.441 50.7051C673.476 51.3948 661.144 38.2593 644.609 50.7097C641.393 40.7025 638.822 32.5013 636.251 24.2998C635.189 24.7591 634.016 25.2435 632.93 25.5997C631.338 39.0901 634.9 50.1033 649.439 54.4902C650.824 62.0944 631.904 57.947 643.218 69.6874C634.868 67.3607 630.587 79.2947 622.492 72.4615C623.938 70.6129 625.495 68.7388 626.941 66.8902L626.631 67.0694ZM90.8233 407.988C91.1694 408.994 91.5391 410.103 91.8852 411.109C91.5391 410.103 91.193 409.097 90.8468 408.091C91.785 406.575 92.7466 405.163 93.7956 403.621L100.008 402.205C99.8437 401.483 99.7026 400.864 99.5379 400.142C97.5947 401.345 95.7389 402.419 93.7956 403.621C92.834 405.034 91.8723 406.447 90.9106 407.859L90.8233 407.988ZM588.937 522.541C591.086 518.145 595.342 513.269 585.298 510.677C583.078 518.344 580.945 525.882 578.366 535.041C588.445 533.177 587.746 527.044 589.223 522.259L588.937 522.541ZM429.211 111.335C429.463 111.929 429.715 112.522 429.944 113.012C431.228 112.503 432.512 111.993 433.686 111.508C433.592 111.096 433.498 110.683 433.293 110.296L429.077 111.257L429.211 111.335ZM604.749 534.557C604.386 533.989 604.023 533.421 603.573 532.981C603.573 532.981 602.574 533.209 602.621 533.415C602.541 534.085 602.682 534.703 602.823 535.322C603.489 535.17 604.107 534.812 604.749 534.557ZM636.877 20.9022C636.877 20.9022 637.829 20.4683 637.869 20.1336C637.933 19.9021 637.482 19.4622 637.277 19.075C636.793 19.5109 636.286 19.8438 635.801 20.2797L636.854 20.7993L636.877 20.9022ZM597.114 510.803C597.114 510.803 596.338 510.98 596.139 511.134C595.964 511.391 596.058 511.804 596.153 512.216C596.707 512.09 597.239 511.86 597.77 511.63C597.588 511.346 597.407 511.062 597.225 510.778L597.114 510.803ZM579.689 110.974L579.006 111.563L579.964 111.67L579.8 110.948L579.689 110.974ZM664.257 506.339L665.161 505.699L664.068 505.514L664.28 506.442L664.257 506.339ZM649.829 30.0992C649.829 30.0992 650.021 29.4046 649.974 29.1984C649.95 29.0953 649.483 29.0934 649.127 29.0661C649.197 29.3755 648.935 29.7607 648.982 29.9669C649.005 30.07 649.472 30.072 649.829 30.0992Z" fill="white"/>
</svg>
