<svg width="18" height="16" viewBox="0 0 18 16" fill="none" xmlns="http://www.w3.org/2000/svg">
<path d="M0.279419 6.39146C0.279419 7.07215 0.694989 7.48773 1.37566 7.48773H15.9564C16.6371 7.48773 17.0598 7.07215 17.0598 6.39146V6.04038C17.0598 5.36688 16.6371 4.93698 15.9564 4.93698H1.37566C0.694989 4.93698 0.279419 5.36688 0.279419 6.04038V6.39146ZM4.83635 15.3549H12.5029C14.158 15.3549 14.6739 14.3876 14.8817 13.3487L15.8776 8.46929H1.46881L2.45758 13.3487C2.66536 14.3876 3.18124 15.3549 4.83635 15.3549ZM5.30208 14.1225C5.02981 14.1655 4.82919 14.0222 4.7862 13.7786L4.17001 10.1746C4.12702 9.93099 4.28465 9.73754 4.55692 9.68735C4.82919 9.65152 5.03697 9.78768 5.07996 10.0313L5.68899 13.6353C5.72481 13.8789 5.58152 14.0723 5.30208 14.1225ZM7.57339 14.1153C7.30113 14.1297 7.10046 13.9649 7.08615 13.7141L6.84972 10.1531C6.83541 9.90232 7.0145 9.72318 7.27961 9.70171C7.55902 9.68019 7.74532 9.85218 7.76684 10.1029L8.00327 13.6639C8.01758 13.9147 7.8385 14.101 7.57339 14.1153ZM9.78022 14.1153C9.50796 14.101 9.32882 13.9147 9.34312 13.6639L9.57956 10.1029C9.60108 9.85218 9.78738 9.68019 10.0668 9.70171C10.3319 9.72318 10.511 9.90232 10.4967 10.1531L10.2602 13.7141C10.2459 13.9649 10.0453 14.1297 9.78022 14.1153ZM12.0372 14.1225C11.7577 14.0723 11.6145 13.8789 11.6503 13.6353L12.2593 10.0313C12.3023 9.78768 12.5101 9.65152 12.7823 9.68735C13.0546 9.73754 13.2122 9.9453 13.1692 10.1889L12.553 13.7786C12.5101 14.0222 12.3023 14.1655 12.0372 14.1225ZM2.58655 5.24507H4.01955L6.54163 0.867265C6.73508 0.523342 6.57746 0.222412 6.31235 0.0791126C6.0544 -0.0570222 5.71048 -0.0355273 5.51703 0.286898L2.58655 5.24507ZM13.3197 5.24507H14.7527L11.8222 0.286898C11.6359 -0.0283623 11.292 -0.0498573 11.0269 0.0791126C10.7689 0.222412 10.6042 0.523342 10.7976 0.867265L13.3197 5.24507Z" fill="white"/>
</svg>
