<svg width="187" height="41" viewBox="0 0 187 41" fill="none" xmlns="http://www.w3.org/2000/svg">
<path d="M178.187 25.2612C176.941 25.2612 175.803 24.9927 174.772 24.4557C173.762 23.9187 172.957 23.1346 172.355 22.1035C171.775 21.051 171.485 19.7729 171.485 18.2692C171.485 16.7871 171.797 15.509 172.42 14.435C173.043 13.3394 173.87 12.5017 174.901 11.9217C175.953 11.3417 177.103 11.0518 178.348 11.0518C179.594 11.0518 180.647 11.3417 181.506 11.9217C182.365 12.4802 183.02 13.1461 183.472 13.9194L183.278 14.435L183.568 11.5995H186.339V24.939H183.343V21.4591L183.665 22.2324C183.579 22.4472 183.386 22.7265 183.085 23.0702C182.806 23.3924 182.419 23.7253 181.925 24.069C181.452 24.4127 180.905 24.7027 180.282 24.939C179.659 25.1538 178.961 25.2612 178.187 25.2612ZM178.993 22.7802C179.745 22.7802 180.421 22.6406 181.023 22.3613C181.624 22.0821 182.118 21.6954 182.505 21.2014C182.913 20.6858 183.192 20.0736 183.343 19.3648V16.7549C183.171 16.1104 182.87 15.5519 182.44 15.0794C182.011 14.5853 181.495 14.2094 180.894 13.9516C180.292 13.6724 179.627 13.5328 178.896 13.5328C178.101 13.5328 177.371 13.7261 176.705 14.1127C176.039 14.4994 175.502 15.0364 175.094 15.7238C174.707 16.4112 174.514 17.2167 174.514 18.1404C174.514 18.9996 174.718 19.7836 175.126 20.4925C175.534 21.2014 176.082 21.7599 176.77 22.168C177.457 22.5761 178.198 22.7802 178.993 22.7802Z" fill="#7C6F6D"/>
<path d="M148.731 11.5995L148.989 14.5961L148.86 14.3383C149.354 13.3287 150.052 12.5339 150.954 11.9539C151.878 11.374 152.931 11.084 154.112 11.084C154.864 11.084 155.53 11.2021 156.11 11.4384C156.69 11.6747 157.162 12.0184 157.527 12.4695C157.914 12.8991 158.161 13.4361 158.268 14.0805L158.107 14.1772C158.623 13.2106 159.332 12.4587 160.234 11.9217C161.158 11.3632 162.124 11.084 163.134 11.084C164.444 11.084 165.475 11.4599 166.227 12.2117C167 12.9421 167.398 13.8979 167.419 15.0794V24.939H164.423V16.1427C164.401 15.4553 164.229 14.8861 163.907 14.435C163.606 13.9624 163.069 13.7046 162.296 13.6617C161.523 13.6617 160.825 13.8979 160.202 14.3705C159.6 14.8431 159.128 15.4553 158.784 16.2071C158.44 16.9375 158.258 17.7322 158.236 18.5915V24.939H155.24V16.1427C155.218 15.4553 155.036 14.8861 154.692 14.435C154.37 13.9624 153.822 13.7046 153.049 13.6617C152.254 13.6617 151.556 13.8979 150.954 14.3705C150.353 14.8431 149.88 15.4553 149.537 16.2071C149.214 16.9589 149.053 17.7645 149.053 18.6237V24.939H146.057V11.5995H148.731Z" fill="#7C6F6D"/>
<path d="M122.142 11.5995L122.4 14.5961L122.271 14.3383C122.765 13.3287 123.464 12.5339 124.366 11.9539C125.289 11.374 126.342 11.084 127.523 11.084C128.275 11.084 128.941 11.2021 129.521 11.4384C130.101 11.6747 130.574 12.0184 130.939 12.4695C131.325 12.8991 131.572 13.4361 131.68 14.0805L131.519 14.1772C132.034 13.2106 132.743 12.4587 133.645 11.9217C134.569 11.3632 135.536 11.084 136.545 11.084C137.856 11.084 138.887 11.4599 139.638 12.2117C140.412 12.9421 140.809 13.8979 140.831 15.0794V24.939H137.834V16.1427C137.813 15.4553 137.641 14.8861 137.319 14.435C137.018 13.9624 136.481 13.7046 135.707 13.6617C134.934 13.6617 134.236 13.8979 133.613 14.3705C133.012 14.8431 132.539 15.4553 132.195 16.2071C131.852 16.9375 131.669 17.7322 131.648 18.5915V24.939H128.651V16.1427C128.63 15.4553 128.447 14.8861 128.103 14.435C127.781 13.9624 127.233 13.7046 126.46 13.6617C125.665 13.6617 124.967 13.8979 124.366 14.3705C123.764 14.8431 123.292 15.4553 122.948 16.2071C122.626 16.9589 122.465 17.7645 122.465 18.6237V24.939H119.468V11.5995H122.142Z" fill="#7C6F6D"/>
<path d="M106.1 25.4545C104.897 25.4545 103.898 25.0893 103.103 24.359C102.33 23.6072 101.922 22.6405 101.879 21.4591V11.5995H104.875V20.3958C104.918 21.1261 105.122 21.7169 105.488 22.168C105.874 22.619 106.476 22.8553 107.292 22.8768C108.044 22.8768 108.71 22.662 109.29 22.2324C109.891 21.7813 110.374 21.1798 110.74 20.428C111.105 19.6547 111.287 18.7848 111.287 17.8181V11.5995H114.284V24.939H111.545L111.287 21.6524L111.448 22.2324C111.191 22.8553 110.793 23.4138 110.256 23.9079C109.741 24.3805 109.129 24.7564 108.42 25.0356C107.711 25.3149 106.938 25.4545 106.1 25.4545Z" fill="#7C6F6D"/>
<path d="M72.7589 24.939V0.902222H72.7911L85.0029 18.2371L83.6818 17.9793L95.8613 0.902222H95.9258V24.939H92.8326V7.99083L93.0259 9.56966L84.2296 22.0069H84.1651L75.2399 9.56966L75.7877 8.11971V24.939H72.7589Z" fill="#7C6F6D"/>
<path d="M46.6876 11.5995L46.9454 14.8538L46.8165 14.3383C47.2461 13.3502 47.9443 12.5661 48.9109 11.9862C49.8775 11.3847 50.9945 11.084 52.2619 11.084C53.5292 11.084 54.5603 11.4599 55.3551 12.2117C56.1713 12.9421 56.5902 13.8979 56.6117 15.0794V24.939H53.5829V16.1427C53.5614 15.4123 53.3466 14.8216 52.9385 14.3705C52.5519 13.8979 51.9397 13.6617 51.1019 13.6617C50.3286 13.6617 49.6305 13.8765 49.0076 14.3061C48.3846 14.7357 47.8906 15.3264 47.5254 16.0782C47.1817 16.8301 47.0099 17.7 47.0099 18.6881V24.939H44.0133V11.5995H46.6876Z" fill="#7C6F6D"/>
<path d="M35.8322 11.5996H38.8288V24.939H35.8322V11.5996ZM35.6067 6.76643C35.6067 6.29386 35.7893 5.89647 36.1544 5.57426C36.5411 5.25205 36.96 5.09094 37.4111 5.09094C37.8622 5.09094 38.2595 5.25205 38.6032 5.57426C38.9684 5.89647 39.151 6.29386 39.151 6.76643C39.151 7.26049 38.9684 7.66862 38.6032 7.99083C38.2595 8.29156 37.8622 8.44192 37.4111 8.44192C36.96 8.44192 36.5411 8.28082 36.1544 7.95861C35.7893 7.6364 35.6067 7.23901 35.6067 6.76643Z" fill="#7C6F6D"/>
<path d="M19.7847 24.939V0H22.7812V24.939H19.7847ZM26.0033 16.0783L32.1253 24.939H28.6132L24.0056 17.7537L26.0033 16.0783ZM21.8468 20.6858L21.5568 17.8182L29.6443 11.3096L31.4809 12.8884L21.8468 20.6858Z" fill="#7C6F6D"/>
<path d="M13.8228 5.79979C13.028 5.39166 12.158 5.03723 11.2129 4.7365C10.2677 4.43577 9.34407 4.28541 8.44189 4.28541C7.19601 4.28541 6.19716 4.57539 5.44534 5.15537C4.715 5.73535 4.34983 6.50865 4.34983 7.47528C4.34983 8.20562 4.58611 8.82856 5.05869 9.34409C5.53126 9.83815 6.1542 10.2678 6.9275 10.6329C7.7008 10.9981 8.50633 11.3418 9.34407 11.664C10.0744 11.9433 10.794 12.2547 11.5029 12.5984C12.2117 12.9421 12.8454 13.3717 13.4039 13.8872C13.9839 14.4028 14.435 15.0365 14.7572 15.7883C15.1009 16.5401 15.2727 17.4745 15.2727 18.5915C15.2727 19.8159 14.9613 20.9329 14.3383 21.9425C13.7369 22.9521 12.8669 23.7469 11.7284 24.3268C10.5899 24.9068 9.23667 25.1968 7.66858 25.1968C6.63751 25.1968 5.64941 25.0787 4.70426 24.8424C3.78059 24.6061 2.92137 24.3054 2.12658 23.9402C1.3318 23.5535 0.622938 23.1561 0 22.748L1.3855 20.2992C1.90104 20.6644 2.49175 21.0188 3.15765 21.3625C3.82355 21.6847 4.52167 21.9532 5.25201 22.168C5.98235 22.3614 6.69122 22.458 7.3786 22.458C8.10894 22.458 8.82854 22.3291 9.5374 22.0714C10.2677 21.7921 10.8692 21.3732 11.3418 20.8148C11.8143 20.2563 12.0506 19.5152 12.0506 18.5915C12.0506 17.7967 11.8358 17.1416 11.4062 16.626C10.9981 16.089 10.4503 15.6379 9.76295 15.2727C9.07557 14.8861 8.34522 14.5424 7.57192 14.2417C6.84158 13.9624 6.1005 13.6617 5.34868 13.3395C4.59685 12.9958 3.89873 12.5877 3.25431 12.1151C2.6099 11.621 2.09436 11.0196 1.70771 10.3107C1.32106 9.60186 1.12773 8.74264 1.12773 7.73305C1.12773 6.50865 1.41772 5.44536 1.9977 4.54317C2.59916 3.61951 3.41542 2.8999 4.44649 2.38437C5.47756 1.84735 6.65899 1.55737 7.99079 1.5144C9.49444 1.5144 10.8155 1.69699 11.954 2.06216C13.1139 2.42733 14.1343 2.87843 15.015 3.41544L13.8228 5.79979Z" fill="#7C6F6D"/>
<path d="M57.3959 33.2147H61.7838V34.083H58.3015V36.1369H61.4104V37.0051H58.3015V39.0964H61.9145V39.9646H57.3959V33.2147Z" fill="#7C6F6D"/>
<path d="M51.1712 33.2147L53.3931 38.7976L52.8797 38.6949L54.9896 33.2147H56.0446L53.0664 40.2727L50.0975 33.2147H51.1712Z" fill="#7C6F6D"/>
<path d="M42.6801 36.5943C42.6801 36.1275 42.7672 35.6887 42.9415 35.278C43.122 34.8609 43.3709 34.4937 43.6883 34.1763C44.0058 33.8527 44.3699 33.6006 44.7806 33.4201C45.1977 33.2334 45.6458 33.14 46.125 33.14C46.5981 33.14 47.04 33.2334 47.4507 33.4201C47.8677 33.6006 48.235 33.8527 48.5524 34.1763C48.876 34.4937 49.1281 34.8609 49.3086 35.278C49.4891 35.6887 49.5793 36.1275 49.5793 36.5943C49.5793 37.0736 49.4891 37.5217 49.3086 37.9387C49.1281 38.3557 48.876 38.7229 48.5524 39.0404C48.235 39.3516 47.8677 39.5974 47.4507 39.7779C47.04 39.9522 46.5981 40.0393 46.125 40.0393C45.6458 40.0393 45.1977 39.9522 44.7806 39.7779C44.3699 39.6036 44.0058 39.3609 43.6883 39.0497C43.3709 38.7385 43.122 38.3744 42.9415 37.9574C42.7672 37.5404 42.6801 37.086 42.6801 36.5943ZM43.6137 36.6037C43.6137 36.9584 43.679 37.2914 43.8097 37.6026C43.9404 37.9076 44.1209 38.1783 44.3512 38.4148C44.5815 38.6514 44.8491 38.8381 45.1541 38.975C45.4591 39.1057 45.7889 39.1711 46.1437 39.1711C46.4922 39.1711 46.819 39.1057 47.124 38.975C47.429 38.8381 47.6935 38.6514 47.9175 38.4148C48.1416 38.1783 48.319 37.9076 48.4497 37.6026C48.5804 37.2914 48.6457 36.9553 48.6457 36.5943C48.6457 36.2396 48.5804 35.9066 48.4497 35.5954C48.319 35.278 48.1385 35.001 47.9082 34.7645C47.6779 34.528 47.4103 34.3444 47.1053 34.2137C46.8003 34.0767 46.4736 34.0083 46.125 34.0083C45.7703 34.0083 45.4404 34.0767 45.1354 34.2137C44.8304 34.3506 44.5628 34.5373 44.3325 34.7738C44.1022 35.0103 43.9249 35.2873 43.8004 35.6047C43.6759 35.9159 43.6137 36.2489 43.6137 36.6037Z" fill="#7C6F6D"/>
<path d="M37.4202 33.2147H38.3258V39.0964H41.7521V39.9646H37.4202V33.2147Z" fill="#7C6F6D"/>
<path d="M32.5241 34.4191C32.2938 34.3008 32.0417 34.1981 31.7678 34.111C31.494 34.0238 31.2264 33.9803 30.9649 33.9803C30.604 33.9803 30.3145 34.0643 30.0967 34.2323C29.8851 34.4004 29.7793 34.6244 29.7793 34.9045C29.7793 35.1161 29.8477 35.2966 29.9847 35.446C30.1216 35.5892 30.3021 35.7136 30.5262 35.8195C30.7502 35.9253 30.9836 36.0248 31.2264 36.1182C31.438 36.1991 31.6465 36.2894 31.8519 36.3889C32.0573 36.4885 32.2409 36.613 32.4027 36.7624C32.5707 36.9118 32.7014 37.0954 32.7948 37.3132C32.8944 37.531 32.9442 37.8018 32.9442 38.1254C32.9442 38.4802 32.8539 38.8039 32.6734 39.0964C32.4992 39.3889 32.2471 39.6192 31.9172 39.7872C31.5873 39.9553 31.1952 40.0393 30.7409 40.0393C30.4421 40.0393 30.1558 40.0051 29.882 39.9366C29.6143 39.8682 29.3654 39.781 29.1351 39.6752C28.9048 39.5632 28.6994 39.448 28.5189 39.3298L28.9204 38.6202C29.0697 38.7261 29.2409 38.8287 29.4338 38.9283C29.6268 39.0217 29.8291 39.0995 30.0407 39.1617C30.2523 39.2177 30.4577 39.2458 30.6569 39.2458C30.8685 39.2458 31.077 39.2084 31.2824 39.1337C31.494 39.0528 31.6683 38.9314 31.8052 38.7696C31.9421 38.6078 32.0106 38.3931 32.0106 38.1254C32.0106 37.8952 31.9483 37.7053 31.8239 37.5559C31.7056 37.4003 31.5469 37.2696 31.3477 37.1638C31.1486 37.0518 30.9369 36.9522 30.7129 36.8651C30.5013 36.7842 30.2865 36.697 30.0687 36.6037C29.8509 36.5041 29.6486 36.3858 29.4619 36.2489C29.2751 36.1058 29.1258 35.9315 29.0137 35.7261C28.9017 35.5207 28.8457 35.2717 28.8457 34.9792C28.8457 34.6244 28.9297 34.3164 29.0978 34.055C29.272 33.7873 29.5085 33.5788 29.8073 33.4294C30.106 33.2738 30.4484 33.1898 30.8342 33.1774C31.2699 33.1774 31.6527 33.2303 31.9826 33.3361C32.3187 33.4419 32.6143 33.5726 32.8695 33.7282L32.5241 34.4191Z" fill="#7C6F6D"/>
<path d="M27.1039 34.6991L26.6651 34.475C26.7958 34.3505 26.8985 34.1794 26.9732 33.9615C27.0541 33.7437 27.0728 33.5259 27.0292 33.308L27.7201 33.2427C27.7574 33.4169 27.7512 33.6006 27.7014 33.7935C27.6516 33.9802 27.5738 34.1545 27.468 34.3163C27.3622 34.4781 27.2408 34.6057 27.1039 34.6991Z" fill="#7C6F6D"/>
<path d="M18.6571 39.9646V33H18.6664L22.2048 38.0228L21.822 37.9481L25.351 33H25.3697V39.9646H24.4734V35.0539L24.5294 35.5114L21.9807 39.1151H21.962L19.376 35.5114L19.5347 35.0913V39.9646H18.6571Z" fill="#7C6F6D"/>
<path d="M10.2321 36.5943C10.2321 36.1275 10.3192 35.6887 10.4935 35.278C10.674 34.8609 10.9229 34.4937 11.2403 34.1763C11.5578 33.8527 11.9219 33.6006 12.3327 33.4201C12.7497 33.2334 13.1978 33.14 13.677 33.14C14.1501 33.14 14.592 33.2334 15.0027 33.4201C15.4197 33.6006 15.787 33.8527 16.1044 34.1763C16.428 34.4937 16.6801 34.8609 16.8606 35.278C17.0411 35.6887 17.1313 36.1275 17.1313 36.5943C17.1313 37.0736 17.0411 37.5217 16.8606 37.9387C16.6801 38.3557 16.428 38.7229 16.1044 39.0404C15.787 39.3516 15.4197 39.5974 15.0027 39.7779C14.592 39.9522 14.1501 40.0393 13.677 40.0393C13.1978 40.0393 12.7497 39.9522 12.3327 39.7779C11.9219 39.6036 11.5578 39.3609 11.2403 39.0497C10.9229 38.7385 10.674 38.3744 10.4935 37.9574C10.3192 37.5404 10.2321 37.086 10.2321 36.5943ZM11.1657 36.6037C11.1657 36.9584 11.231 37.2914 11.3617 37.6026C11.4924 37.9076 11.6729 38.1783 11.9032 38.4148C12.1335 38.6514 12.4011 38.8381 12.7061 38.975C13.0111 39.1057 13.3409 39.1711 13.6957 39.1711C14.0442 39.1711 14.371 39.1057 14.676 38.975C14.981 38.8381 15.2455 38.6514 15.4695 38.4148C15.6936 38.1783 15.871 37.9076 16.0017 37.6026C16.1324 37.2914 16.1977 36.9553 16.1977 36.5943C16.1977 36.2396 16.1324 35.9066 16.0017 35.5954C15.871 35.278 15.6905 35.001 15.4602 34.7645C15.2299 34.528 14.9623 34.3444 14.6573 34.2137C14.3523 34.0767 14.0256 34.0083 13.677 34.0083C13.3223 34.0083 12.9924 34.0767 12.6874 34.2137C12.3824 34.3506 12.1148 34.5373 11.8845 34.7738C11.6542 35.0103 11.4769 35.2873 11.3524 35.6047C11.2279 35.9159 11.1657 36.2489 11.1657 36.6037Z" fill="#7C6F6D"/>
<path d="M2 39.9646V33H2.00934L5.54767 38.0228L5.1649 37.9481L8.6939 33H8.71257V39.9646H7.81632V35.0539L7.87233 35.5114L5.32361 39.1151H5.30494L2.71887 35.5114L2.87758 35.0913V39.9646H2Z" fill="#7C6F6D"/>
</svg>
