<svg width="17" height="17" viewBox="0 0 17 17" fill="none" xmlns="http://www.w3.org/2000/svg">
<path d="M15.38 0.375C15.9777 0.375 16.505 0.902344 16.505 1.53516V15C16.505 15.6328 15.9777 16.125 15.38 16.125H1.84485C1.24719 16.125 0.755005 15.6328 0.755005 15V1.53516C0.755005 0.902344 1.24719 0.375 1.84485 0.375H15.38ZM5.5011 13.875V6.38672H3.18079V13.875H5.5011ZM4.34094 5.33203C5.07922 5.33203 5.67688 4.73438 5.67688 3.99609C5.67688 3.25781 5.07922 2.625 4.34094 2.625C3.5675 2.625 2.96985 3.25781 2.96985 3.99609C2.96985 4.73438 3.5675 5.33203 4.34094 5.33203ZM14.255 13.875V9.76172C14.255 7.75781 13.798 6.17578 11.4425 6.17578C10.3175 6.17578 9.54407 6.80859 9.22766 7.40625H9.1925V6.38672H6.97766V13.875H9.29797V10.1836C9.29797 9.19922 9.47375 8.25 10.7042 8.25C11.8995 8.25 11.8995 9.375 11.8995 10.2188V13.875H14.255Z" fill="#7C6F6D"/>
</svg>
