<svg width="187" height="40" viewBox="0 0 187 40" fill="none" xmlns="http://www.w3.org/2000/svg">
<path d="M178.187 25.2612C176.941 25.2612 175.803 24.9927 174.772 24.4557C173.762 23.9187 172.957 23.1346 172.355 22.1035C171.775 21.051 171.485 19.7729 171.485 18.2692C171.485 16.7871 171.797 15.509 172.42 14.435C173.043 13.3394 173.87 12.5017 174.901 11.9217C175.953 11.3417 177.103 11.0518 178.348 11.0518C179.594 11.0518 180.647 11.3417 181.506 11.9217C182.365 12.4802 183.02 13.1461 183.472 13.9194L183.278 14.435L183.568 11.5995H186.339V24.939H183.343V21.4591L183.665 22.2324C183.579 22.4472 183.386 22.7265 183.085 23.0702C182.806 23.3924 182.419 23.7253 181.925 24.069C181.452 24.4127 180.905 24.7027 180.282 24.939C179.659 25.1538 178.961 25.2612 178.187 25.2612ZM178.993 22.7802C179.745 22.7802 180.421 22.6406 181.023 22.3613C181.624 22.0821 182.118 21.6954 182.505 21.2014C182.913 20.6858 183.192 20.0736 183.343 19.3648V16.7549C183.171 16.1104 182.87 15.5519 182.44 15.0794C182.011 14.5853 181.495 14.2094 180.894 13.9516C180.292 13.6724 179.627 13.5328 178.896 13.5328C178.101 13.5328 177.371 13.7261 176.705 14.1127C176.039 14.4994 175.502 15.0364 175.094 15.7238C174.707 16.4112 174.514 17.2167 174.514 18.1404C174.514 18.9996 174.718 19.7836 175.126 20.4925C175.534 21.2014 176.082 21.7599 176.77 22.168C177.457 22.5761 178.198 22.7802 178.993 22.7802Z" fill="white"/>
<path d="M148.731 11.5995L148.989 14.5961L148.86 14.3383C149.354 13.3287 150.052 12.5339 150.954 11.9539C151.878 11.374 152.931 11.084 154.112 11.084C154.864 11.084 155.53 11.2021 156.11 11.4384C156.69 11.6747 157.162 12.0184 157.527 12.4695C157.914 12.8991 158.161 13.4361 158.268 14.0805L158.107 14.1772C158.623 13.2106 159.332 12.4587 160.234 11.9217C161.158 11.3632 162.124 11.084 163.134 11.084C164.444 11.084 165.475 11.4599 166.227 12.2117C167 12.9421 167.398 13.8979 167.419 15.0794V24.939H164.423V16.1427C164.401 15.4553 164.229 14.8861 163.907 14.435C163.606 13.9624 163.069 13.7046 162.296 13.6617C161.523 13.6617 160.825 13.8979 160.202 14.3705C159.6 14.8431 159.128 15.4553 158.784 16.2071C158.44 16.9375 158.258 17.7322 158.236 18.5915V24.939H155.24V16.1427C155.218 15.4553 155.036 14.8861 154.692 14.435C154.37 13.9624 153.822 13.7046 153.049 13.6617C152.254 13.6617 151.556 13.8979 150.954 14.3705C150.353 14.8431 149.88 15.4553 149.537 16.2071C149.214 16.9589 149.053 17.7645 149.053 18.6237V24.939H146.057V11.5995H148.731Z" fill="white"/>
<path d="M122.142 11.5995L122.4 14.5961L122.271 14.3383C122.765 13.3287 123.464 12.5339 124.366 11.9539C125.289 11.374 126.342 11.084 127.523 11.084C128.275 11.084 128.941 11.2021 129.521 11.4384C130.101 11.6747 130.574 12.0184 130.939 12.4695C131.325 12.8991 131.572 13.4361 131.68 14.0805L131.519 14.1772C132.034 13.2106 132.743 12.4587 133.645 11.9217C134.569 11.3632 135.536 11.084 136.545 11.084C137.856 11.084 138.887 11.4599 139.638 12.2117C140.412 12.9421 140.809 13.8979 140.831 15.0794V24.939H137.834V16.1427C137.813 15.4553 137.641 14.8861 137.319 14.435C137.018 13.9624 136.481 13.7046 135.707 13.6617C134.934 13.6617 134.236 13.8979 133.613 14.3705C133.012 14.8431 132.539 15.4553 132.195 16.2071C131.852 16.9375 131.669 17.7322 131.648 18.5915V24.939H128.651V16.1427C128.63 15.4553 128.447 14.8861 128.103 14.435C127.781 13.9624 127.233 13.7046 126.46 13.6617C125.665 13.6617 124.967 13.8979 124.366 14.3705C123.764 14.8431 123.292 15.4553 122.948 16.2071C122.626 16.9589 122.465 17.7645 122.465 18.6237V24.939H119.468V11.5995H122.142Z" fill="white"/>
<path d="M106.1 25.4544C104.897 25.4544 103.898 25.0892 103.103 24.3589C102.33 23.607 101.922 22.6404 101.879 21.459V11.5994H104.875V20.3957C104.918 21.126 105.122 21.7167 105.488 22.1678C105.874 22.6189 106.476 22.8552 107.292 22.8767C108.044 22.8767 108.71 22.6619 109.29 22.2323C109.891 21.7812 110.374 21.1797 110.74 20.4279C111.105 19.6546 111.287 18.7846 111.287 17.818V11.5994H114.284V24.9388H111.545L111.287 21.6523L111.448 22.2323C111.191 22.8552 110.793 23.4137 110.256 23.9078C109.741 24.3803 109.128 24.7562 108.42 25.0355C107.711 25.3147 106.937 25.4544 106.1 25.4544Z" fill="white"/>
<path d="M72.7589 24.9389V0.9021H72.7911L85.0029 18.237L83.6818 17.9792L95.8613 0.9021H95.9258V24.9389H92.8326V7.99071L93.0259 9.56953L84.2296 22.0068H84.1651L75.2399 9.56953L75.7877 8.11959V24.9389H72.7589Z" fill="white"/>
<path d="M46.6876 11.5995L46.9454 14.8538L46.8165 14.3383C47.2461 13.3502 47.9443 12.5661 48.9109 11.9862C49.8775 11.3847 50.9945 11.084 52.2619 11.084C53.5292 11.084 54.5603 11.4599 55.3551 12.2117C56.1713 12.9421 56.5902 13.8979 56.6117 15.0794V24.939H53.5829V16.1427C53.5614 15.4123 53.3466 14.8216 52.9385 14.3705C52.5519 13.8979 51.9397 13.6617 51.1019 13.6617C50.3286 13.6617 49.6305 13.8765 49.0076 14.3061C48.3846 14.7357 47.8906 15.3264 47.5254 16.0782C47.1817 16.8301 47.0099 17.7 47.0099 18.6881V24.939H44.0133V11.5995H46.6876Z" fill="white"/>
<path d="M35.8322 11.5995H38.8288V24.9389H35.8322V11.5995ZM35.6067 6.76631C35.6067 6.29374 35.7893 5.89634 36.1544 5.57414C36.5411 5.25193 36.96 5.09082 37.4111 5.09082C37.8622 5.09082 38.2595 5.25193 38.6032 5.57414C38.9684 5.89634 39.151 6.29374 39.151 6.76631C39.151 7.26037 38.9684 7.6685 38.6032 7.99071C38.2595 8.29143 37.8622 8.4418 37.4111 8.4418C36.96 8.4418 36.5411 8.28069 36.1544 7.95849C35.7893 7.63628 35.6067 7.23888 35.6067 6.76631Z" fill="white"/>
<path d="M19.7847 24.939V0H22.7812V24.939H19.7847ZM26.0033 16.0783L32.1253 24.939H28.6132L24.0056 17.7537L26.0033 16.0783ZM21.8468 20.6858L21.5568 17.8182L29.6443 11.3096L31.4809 12.8884L21.8468 20.6858Z" fill="white"/>
<path d="M13.8228 5.79979C13.028 5.39166 12.158 5.03723 11.2129 4.7365C10.2677 4.43577 9.34407 4.28541 8.44189 4.28541C7.19601 4.28541 6.19716 4.57539 5.44534 5.15537C4.715 5.73535 4.34983 6.50865 4.34983 7.47528C4.34983 8.20562 4.58611 8.82856 5.05869 9.34409C5.53126 9.83815 6.1542 10.2678 6.9275 10.6329C7.7008 10.9981 8.50633 11.3418 9.34407 11.664C10.0744 11.9433 10.794 12.2547 11.5029 12.5984C12.2117 12.9421 12.8454 13.3717 13.4039 13.8872C13.9839 14.4028 14.435 15.0365 14.7572 15.7883C15.1009 16.5401 15.2727 17.4745 15.2727 18.5915C15.2727 19.8159 14.9613 20.9329 14.3383 21.9425C13.7369 22.9521 12.8669 23.7469 11.7284 24.3268C10.5899 24.9068 9.23667 25.1968 7.66858 25.1968C6.63751 25.1968 5.64941 25.0787 4.70426 24.8424C3.78059 24.6061 2.92137 24.3054 2.12658 23.9402C1.3318 23.5535 0.622938 23.1561 0 22.748L1.3855 20.2992C1.90104 20.6644 2.49175 21.0188 3.15765 21.3625C3.82355 21.6847 4.52167 21.9532 5.25201 22.168C5.98235 22.3614 6.69122 22.458 7.3786 22.458C8.10894 22.458 8.82854 22.3291 9.5374 22.0714C10.2677 21.7921 10.8692 21.3732 11.3418 20.8148C11.8143 20.2563 12.0506 19.5152 12.0506 18.5915C12.0506 17.7967 11.8358 17.1416 11.4062 16.626C10.9981 16.089 10.4503 15.6379 9.76295 15.2727C9.07557 14.8861 8.34522 14.5424 7.57192 14.2417C6.84158 13.9624 6.1005 13.6617 5.34868 13.3395C4.59685 12.9958 3.89873 12.5877 3.25431 12.1151C2.6099 11.621 2.09436 11.0196 1.70771 10.3107C1.32106 9.60186 1.12773 8.74264 1.12773 7.73305C1.12773 6.50865 1.41772 5.44536 1.9977 4.54317C2.59916 3.61951 3.41542 2.8999 4.44649 2.38437C5.47756 1.84735 6.65899 1.55737 7.99079 1.5144C9.49444 1.5144 10.8155 1.69699 11.954 2.06216C13.1139 2.42733 14.1343 2.87843 15.015 3.41544L13.8228 5.79979Z" fill="white"/>
<path d="M114.487 32.942H118.875V33.8103H115.392V35.8642H118.501V36.7324H115.392V38.8237H119.005V39.6919H114.487V32.942Z" fill="white"/>
<path d="M108.262 32.942L110.484 38.5249L109.971 38.4222L112.081 32.942H113.135L110.157 40L107.188 32.942H108.262Z" fill="white"/>
<path d="M99.771 36.3216C99.771 35.8548 99.8581 35.416 100.032 35.0052C100.213 34.5882 100.462 34.221 100.779 33.9036C101.097 33.58 101.461 33.3279 101.872 33.1474C102.289 32.9607 102.737 32.8673 103.216 32.8673C103.689 32.8673 104.131 32.9607 104.542 33.1474C104.959 33.3279 105.326 33.58 105.643 33.9036C105.967 34.221 106.219 34.5882 106.4 35.0052C106.58 35.416 106.67 35.8548 106.67 36.3216C106.67 36.8009 106.58 37.249 106.4 37.666C106.219 38.083 105.967 38.4502 105.643 38.7676C105.326 39.0788 104.959 39.3247 104.542 39.5052C104.131 39.6795 103.689 39.7666 103.216 39.7666C102.737 39.7666 102.289 39.6795 101.872 39.5052C101.461 39.3309 101.097 39.0882 100.779 38.777C100.462 38.4658 100.213 38.1017 100.032 37.6847C99.8581 37.2677 99.771 36.8133 99.771 36.3216ZM100.705 36.331C100.705 36.6857 100.77 37.0187 100.901 37.3299C101.031 37.6349 101.212 37.9056 101.442 38.1421C101.672 38.3787 101.94 38.5654 102.245 38.7023C102.55 38.833 102.88 38.8984 103.235 38.8984C103.583 38.8984 103.91 38.833 104.215 38.7023C104.52 38.5654 104.784 38.3787 105.008 38.1421C105.233 37.9056 105.41 37.6349 105.541 37.3299C105.671 37.0187 105.737 36.6826 105.737 36.3216C105.737 35.9669 105.671 35.6339 105.541 35.3227C105.41 35.0052 105.229 34.7283 104.999 34.4918C104.769 34.2553 104.501 34.0717 104.196 33.9409C103.891 33.804 103.565 33.7356 103.216 33.7356C102.861 33.7356 102.531 33.804 102.226 33.9409C101.921 34.0779 101.654 34.2646 101.423 34.5011C101.193 34.7376 101.016 35.0146 100.891 35.332C100.767 35.6432 100.705 35.9762 100.705 36.331Z" fill="white"/>
<path d="M94.5112 32.942H95.4168V38.8237H98.8431V39.6919H94.5112V32.942Z" fill="white"/>
<path d="M89.615 34.1463C89.3847 34.0281 89.1326 33.9254 88.8588 33.8383C88.5849 33.7511 88.3173 33.7076 88.0559 33.7076C87.6949 33.7076 87.4055 33.7916 87.1876 33.9596C86.976 34.1277 86.8702 34.3517 86.8702 34.6318C86.8702 34.8434 86.9387 35.0239 87.0756 35.1733C87.2125 35.3165 87.393 35.4409 87.6171 35.5467C87.8412 35.6526 88.0746 35.7521 88.3173 35.8455C88.5289 35.9264 88.7374 36.0167 88.9428 36.1162C89.1482 36.2158 89.3318 36.3403 89.4936 36.4897C89.6617 36.6391 89.7924 36.8227 89.8857 37.0405C89.9853 37.2583 90.0351 37.5291 90.0351 37.8527C90.0351 38.2075 89.9449 38.5311 89.7644 38.8237C89.5901 39.1162 89.338 39.3465 89.0082 39.5145C88.6783 39.6826 88.2862 39.7666 87.8318 39.7666C87.5331 39.7666 87.2468 39.7324 86.9729 39.6639C86.7053 39.5955 86.4563 39.5083 86.226 39.4025C85.9958 39.2905 85.7904 39.1753 85.6099 39.0571L86.0113 38.3475C86.1607 38.4533 86.3318 38.556 86.5248 38.6556C86.7177 38.749 86.92 38.8268 87.1316 38.889C87.3432 38.945 87.5486 38.9731 87.7478 38.9731C87.9594 38.9731 88.1679 38.9357 88.3733 38.861C88.5849 38.7801 88.7592 38.6587 88.8961 38.4969C89.0331 38.3351 89.1015 38.1204 89.1015 37.8527C89.1015 37.6224 89.0393 37.4326 88.9148 37.2832C88.7965 37.1276 88.6378 36.9969 88.4387 36.8911C88.2395 36.7791 88.0279 36.6795 87.8038 36.5924C87.5922 36.5115 87.3775 36.4243 87.1596 36.331C86.9418 36.2314 86.7395 36.1131 86.5528 35.9762C86.3661 35.833 86.2167 35.6588 86.1047 35.4534C85.9926 35.248 85.9366 34.999 85.9366 34.7065C85.9366 34.3517 86.0206 34.0437 86.1887 33.7822C86.363 33.5146 86.5995 33.3061 86.8982 33.1567C87.197 33.0011 87.5393 32.9171 87.9252 32.9047C88.3609 32.9047 88.7436 32.9576 89.0735 33.0634C89.4096 33.1692 89.7052 33.2999 89.9604 33.4555L89.615 34.1463Z" fill="white"/>
<path d="M84.1949 34.4264L83.7561 34.2023C83.8868 34.0778 83.9895 33.9067 84.0642 33.6888C84.1451 33.471 84.1638 33.2532 84.1202 33.0353L84.8111 32.97C84.8484 33.1442 84.8422 33.3278 84.7924 33.5208C84.7426 33.7075 84.6648 33.8818 84.559 34.0436C84.4532 34.2054 84.3318 34.333 84.1949 34.4264Z" fill="white"/>
<path d="M75.748 39.6919V32.7273H75.7574L79.2957 37.7501L78.9129 37.6754L82.4419 32.7273H82.4606V39.6919H81.5644V34.7812L81.6204 35.2387L79.0717 38.8424H79.053L76.4669 35.2387L76.6256 34.8186V39.6919H75.748Z" fill="white"/>
<path d="M67.323 36.3216C67.323 35.8548 67.4101 35.416 67.5844 35.0052C67.7649 34.5882 68.0139 34.221 68.3313 33.9036C68.6487 33.58 69.0128 33.3279 69.4236 33.1474C69.8406 32.9607 70.2887 32.8673 70.768 32.8673C71.241 32.8673 71.6829 32.9607 72.0937 33.1474C72.5107 33.3279 72.8779 33.58 73.1953 33.9036C73.519 34.221 73.771 34.5882 73.9515 35.0052C74.132 35.416 74.2223 35.8548 74.2223 36.3216C74.2223 36.8009 74.132 37.249 73.9515 37.666C73.771 38.083 73.519 38.4502 73.1953 38.7676C72.8779 39.0788 72.5107 39.3247 72.0937 39.5052C71.6829 39.6795 71.241 39.7666 70.768 39.7666C70.2887 39.7666 69.8406 39.6795 69.4236 39.5052C69.0128 39.3309 68.6487 39.0882 68.3313 38.777C68.0139 38.4658 67.7649 38.1017 67.5844 37.6847C67.4101 37.2677 67.323 36.8133 67.323 36.3216ZM68.2566 36.331C68.2566 36.6857 68.3219 37.0187 68.4527 37.3299C68.5834 37.6349 68.7639 37.9056 68.9941 38.1421C69.2244 38.3787 69.4921 38.5654 69.797 38.7023C70.102 38.833 70.4319 38.8984 70.7866 38.8984C71.1352 38.8984 71.4619 38.833 71.7669 38.7023C72.0719 38.5654 72.3364 38.3787 72.5605 38.1421C72.7845 37.9056 72.9619 37.6349 73.0926 37.3299C73.2233 37.0187 73.2887 36.6826 73.2887 36.3216C73.2887 35.9669 73.2233 35.6339 73.0926 35.3227C72.9619 35.0052 72.7814 34.7283 72.5511 34.4918C72.3209 34.2553 72.0532 34.0717 71.7483 33.9409C71.4433 33.804 71.1165 33.7356 70.768 33.7356C70.4132 33.7356 70.0833 33.804 69.7784 33.9409C69.4734 34.0779 69.2058 34.2646 68.9755 34.5011C68.7452 34.7376 68.5678 35.0146 68.4433 35.332C68.3188 35.6432 68.2566 35.9762 68.2566 36.331Z" fill="white"/>
<path d="M59.0909 39.6919V32.7273H59.1003L62.6386 37.7501L62.2558 37.6754L65.7848 32.7273H65.8035V39.6919H64.9073V34.7812L64.9633 35.2387L62.4146 38.8424H62.3959L59.8098 35.2387L59.9685 34.8186V39.6919H59.0909Z" fill="white"/>
</svg>
